<?xml version="1.0" encoding="UTF-8" standalone="no"?>
<!-- Created with Inkscape (http://www.inkscape.org/) -->

<svg
   width="210mm"
   height="297mm"
   viewBox="0 0 210 297"
   version="1.1"
   id="svg5"
   xml:space="preserve"
   inkscape:version="1.2.1 (9c6d41e410, 2022-07-14)"
   sodipodi:docname="logo.svg"
   xmlns:inkscape="http://www.inkscape.org/namespaces/inkscape"
   xmlns:sodipodi="http://sodipodi.sourceforge.net/DTD/sodipodi-0.dtd"
   xmlns:xlink="http://www.w3.org/1999/xlink"
   xmlns="http://www.w3.org/2000/svg"
   xmlns:svg="http://www.w3.org/2000/svg"><sodipodi:namedview
     id="namedview7"
     pagecolor="#ffffff"
     bordercolor="#666666"
     borderopacity="1.0"
     inkscape:showpageshadow="2"
     inkscape:pageopacity="0.0"
     inkscape:pagecheckerboard="0"
     inkscape:deskcolor="#d1d1d1"
     inkscape:document-units="mm"
     showgrid="false"
     inkscape:zoom="0.2825"
     inkscape:cx="454.86726"
     inkscape:cy="198.23009"
     inkscape:window-width="1366"
     inkscape:window-height="705"
     inkscape:window-x="-8"
     inkscape:window-y="-8"
     inkscape:window-maximized="1"
     inkscape:current-layer="layer1" /><defs
     id="defs2"><linearGradient
       inkscape:collect="always"
       id="linearGradient4826"><stop
         style="stop-color:#2aff2a;stop-opacity:1;"
         offset="0"
         id="stop4822" /><stop
         style="stop-color:#55ddff;stop-opacity:1;"
         offset="1"
         id="stop4824" /></linearGradient><linearGradient
       inkscape:collect="always"
       xlink:href="#linearGradient4826"
       id="linearGradient4828"
       x1="216.63331"
       y1="65.259184"
       x2="479.09646"
       y2="65.259184"
       gradientUnits="userSpaceOnUse" /></defs><g
     inkscape:label="Camada 1"
     inkscape:groupmode="layer"
     id="layer1"><g
       id="g4309"
       style="fill:#ffffff;stroke:#000000;stroke-width:1.27354;stroke-dasharray:none"
       transform="matrix(0.806156,0,0,0.806156,-83.55287,-82.566765)"
       inkscape:export-filename="cross_sell.png"
       inkscape:export-xdpi="150"
       inkscape:export-ydpi="150"><path
         id="rect3769"
         style="fill:#999999;stroke:#000000;stroke-width:1.27354;stroke-linecap:round;stroke-dasharray:none"
         d="m 347.20929,10.133762 c 0.39236,-1.474291 0.84738,-1.8833823 1.43791,0.01113 l 1.36347,14.355809 V 162.90837 h -4.29833 V 24.500697 Z"
         sodipodi:nodetypes="ccccccc" /><path
         id="rect4304"
         style="fill:url(#linearGradient4828);fill-opacity:1;stroke:#000000;stroke-width:1.27354;stroke-linecap:round;stroke-dasharray:none"
         d="M 217.94529,97.353535 C 259.48788,-4.2343781 434.28967,-6.2193663 477.71758,97.235315 456.9088,83.904021 417.17839,95.682201 417.25381,110.14436 411.97017,97.949086 371.11308,89.319103 347.42743,109.4175 331.33848,93.085785 288.1294,94.97146 278.77897,109.22114 275.46882,97.019235 239.69015,84.356998 217.94529,97.353535 Z"
         sodipodi:nodetypes="cccccc" /></g><g
       id="g2358"
       transform="matrix(2.0533429,0,0,2.0533429,3.594013,-153.01115)"
       style="fill:#ffd42a"><path
         id="rect289-4-5"
         style="fill:#ffd42a;stroke:#000000;stroke-width:0.5;stroke-linecap:round"
         d="m 96.531634,121.87409 5.338106,0.23821 c 0.32459,5.54714 0.48518,11.09428 0.42879,16.64142 -0.0845,4.04099 -3.664964,6.90474 -4.909321,0.71465 -0.530537,-5.86476 -0.700216,-11.72952 -0.857575,-17.59428 z"
         sodipodi:nodetypes="ccccc" /><path
         id="rect289-4-7"
         style="fill:#ffd42a;stroke:#000000;stroke-width:0.5;stroke-linecap:round"
         d="m 103.97958,122.59947 6.00512,-0.57171 c 0.17298,5.19132 0.25345,10.32096 0.0476,15.25977 0.33307,4.36953 -4.58814,7.71555 -4.90932,1.95336 -0.14132,-5.94684 -0.62742,-11.31907 -1.14344,-16.64142 z"
         sodipodi:nodetypes="ccccc" /><path
         style="fill:#ffd42a;stroke:#000000;stroke-width:0.5;stroke-linecap:round;stroke-dasharray:none"
         id="path1120"
         sodipodi:type="arc"
         sodipodi:cx="63.074909"
         sodipodi:cy="110.07819"
         sodipodi:rx="4.8975782"
         sodipodi:ry="4.8975782"
         sodipodi:start="0"
         sodipodi:end="6.2515184"
         sodipodi:open="true"
         sodipodi:arc-type="arc"
         d="m 67.972487,110.07819 a 4.8975782,4.8975782 0 0 1 -4.858805,4.89743 4.8975782,4.8975782 0 0 1 -4.935737,-4.81988 4.8975782,4.8975782 0 0 1 4.780657,-4.97374 4.8975782,4.8975782 0 0 1 5.01143,4.74113" /><path
         style="fill:#ffd42a;stroke:#000000;stroke-width:0.5;stroke-linecap:round;stroke-dasharray:none"
         id="path1120-0"
         sodipodi:type="arc"
         sodipodi:cx="125.7301"
         sodipodi:cy="109.54673"
         sodipodi:rx="4.8975782"
         sodipodi:ry="4.8975782"
         sodipodi:start="0"
         sodipodi:end="6.2515184"
         sodipodi:open="true"
         sodipodi:arc-type="arc"
         d="m 130.62768,109.54673 a 4.8975782,4.8975782 0 0 1 -4.85881,4.89742 4.8975782,4.8975782 0 0 1 -4.93573,-4.81988 4.8975782,4.8975782 0 0 1 4.78066,-4.97374 4.8975782,4.8975782 0 0 1 5.01143,4.74113" /><path
         style="fill:#ffd42a;stroke:#000000;stroke-width:0.5;stroke-linecap:round;stroke-dasharray:none"
         id="path1120-0-3"
         sodipodi:type="arc"
         sodipodi:cx="85.416573"
         sodipodi:cy="83.708473"
         sodipodi:rx="6.5747552"
         sodipodi:ry="6.5747552"
         sodipodi:start="0"
         sodipodi:end="6.2515184"
         sodipodi:open="true"
         sodipodi:arc-type="arc"
         d="m 91.991328,83.708473 a 6.5747552,6.5747552 0 0 1 -6.522705,6.574549 6.5747552,6.5747552 0 0 1 -6.625981,-6.470452 6.5747552,6.5747552 0 0 1 6.417794,-6.676998 6.5747552,6.5747552 0 0 1 6.727595,6.364734" /><path
         style="fill:#ffd42a;stroke:#000000;stroke-width:0.5;stroke-linecap:round;stroke-dasharray:none"
         id="path1120-0-3-1"
         sodipodi:type="arc"
         sodipodi:cx="103.28971"
         sodipodi:cy="83.570351"
         sodipodi:rx="6.5747552"
         sodipodi:ry="6.5747552"
         sodipodi:start="0"
         sodipodi:end="6.2515184"
         sodipodi:open="true"
         sodipodi:arc-type="arc"
         d="m 109.86447,83.570351 a 6.5747552,6.5747552 0 0 1 -6.52271,6.574549 6.5747552,6.5747552 0 0 1 -6.62598,-6.470453 6.5747552,6.5747552 0 0 1 6.41779,-6.676997 6.5747552,6.5747552 0 0 1 6.7276,6.364733" /><path
         id="rect289-28"
         style="fill:#ffd42a;stroke:#000000;stroke-width:0.5;stroke-linecap:round"
         d="m 93.317831,94.934889 c 8.349769,-6.680679 27.356639,-0.943361 24.087459,15.227311 -0.74133,3.73911 -2.0105,5.32604 -3.16675,2.93093 -1.04377,-4.84835 -1.69826,-8.98237 -5.21986,-12.93374 l 4.29278,21.61528 c -6.8439,2.27756 -14.041702,2.25134 -21.071669,-0.15829 z"
         sodipodi:nodetypes="ccccccc" /><path
         id="rect289-2"
         style="fill:#ffd42a;stroke:#000000;stroke-width:0.5;stroke-linecap:round"
         d="m 78.225273,93.789472 c 2.936438,-1.409605 6.228204,-1.753227 9.702359,-1.549682 12.049007,0.48424 7.416267,12.80733 8.287432,22.03245 0.717462,2.88175 -2.763254,6.03563 -4.190937,-0.006 L 91.535525,101.5789 c 0.07459,12.15861 0.483725,24.48449 1.276934,37.00242 -0.1904,5.32558 -5.524719,7.30075 -6.165502,-0.0843 -1.112977,-35.64618 -1.383613,-14.17085 -2.018186,-0.0276 -0.31344,6.26315 -6.48825,6.56506 -6.442074,-0.088 0.25816,-12.10472 0.191007,-24.10101 -0.08931,-36.02624 -2.209465,0.84688 -3.203337,6.79925 -4.588537,11.10805 l -2.314459,-2.75932 c 0.08849,-5.86769 0.252392,-12.807755 7.030883,-16.914918 z"
         sodipodi:nodetypes="ccccccccccccc" /><path
         id="rect289"
         style="fill:#ffd42a;stroke:#000000;stroke-width:0.5;stroke-linecap:round"
         d="m 59.292198,117.23683 5.65971,-0.53902 c 3.294197,-1.0881 5.668345,-2.84069 5.742417,-6.25445 0.918117,-1.63338 1.859395,-2.68775 2.954841,0.1121 0.619138,6.91665 -3.280818,9.13345 -7.03081,11.50621 l 0.893897,19.0268 c -0.02732,3.86312 -3.89683,3.6572 -4.171666,-0.0865 l -1.012748,-7.48975 -0.847324,7.41006 c -0.307599,3.70801 -4.574893,4.46686 -4.209642,-0.0359 l 0.729063,-16.95223 c -0.935647,2.43035 -2.164447,5.11159 -3.636296,6.73764 -2.248636,1.87092 -2.847704,-8e-4 -2.455057,-2.29913 0.92452,-4.51956 4.381654,-9.53214 7.383615,-11.13579 z"
         sodipodi:nodetypes="cccccccccccccc" /><path
         id="rect2339"
         style="fill:#ffd42a;stroke:#000000;stroke-width:0.499999;stroke-linecap:round"
         d="m 121.51531,133.239 h 9.19703 c 0.43359,3.03656 0.4732,5.81047 0.37058,8.48956 -0.26663,2.25785 -3.18135,2.77971 -3.70576,0 -0.85345,-10.55581 -1.61706,-10.55581 -2.29084,0 -0.44532,2.66156 -3.8331,2.7165 -4.07634,0 -0.0799,-2.82985 -0.0381,-5.65971 0.50533,-8.48956 z"
         sodipodi:nodetypes="ccccccc" /><path
         id="rect289-4"
         style="fill:#ffd42a;stroke:#000000;stroke-width:0.5;stroke-linecap:round"
         d="m 122.22896,120.11458 -0.56404,1.57461 c -3.94186,-2.2322 -6.44323,-4.93269 -7.05013,-9.94402 -0.10474,-3.87352 3.00837,-4.14365 3.28311,-1.8199 -0.0834,2.82525 1.90424,4.91561 5.75909,6.34341 l 4.41514,0.23661 c 4.9568,1.57801 6.98132,6.32289 8.82104,11.26735 0.19954,3.60468 -0.9499,4.12596 -3.41836,1.63234 -2.23201,-2.78457 -2.63611,-5.75193 -3.72174,-8.65114 1.00597,4.30691 2.54987,8.66762 2.38773,12.85772 -4.22796,0.53458 -8.59086,0.57434 -13.19921,-0.28586 0.64613,-4.46794 1.75193,-8.87022 3.28737,-13.21112 z"
         sodipodi:nodetypes="cccccccccccc" /></g><path
       id="rect2428"
       style="fill:#2aff2a;stroke:#000000;stroke-width:0.205334;stroke-linecap:round;stroke-dasharray:none"
       d="m 37.111282,60.599979 v 20.53324 H 16.576986 v 20.533221 h 20.534296 v 20.53326 h 20.53324 V 101.66644 H 78.177757 V 81.133219 H 57.644522 v -20.53324 z" /><g
       id="g3195"
       transform="matrix(1.5431025,0,0,1.5431025,215.95577,-228.27383)"><path
         id="rect2509"
         style="fill:#55ddff;stroke:#000000;stroke-width:0.1;stroke-linecap:round;stroke-dasharray:none"
         d="m 77.181801,190.57233 c 10.642385,-1.84182 20.50509,-1.56735 29.891469,0 l 6.16449,9.54229 c 0.47995,0.74125 0.67495,0.53268 0.77605,0.0111 l 0.72127,-2.65723 5.12731,0.0321 c 0.0777,0.68794 0.25981,1.19012 -0.20851,2.84871 l -3.51319,0.14489 c -0.64948,0.44309 -1.10835,0.94972 -1.37669,1.51986 -0.4099,1.50534 1.27552,1.35189 2.25848,1.75455 1.72921,1.10828 1.81435,3.09731 1.79818,5.14062 -0.49051,6.63252 -0.35287,13.25208 -0.47341,20.00792 -2.44834,0.26197 -5.13489,0.54265 -7.58322,0.17492 l -0.14454,-3.0926 c -12.315207,0.35286 -24.609376,0.55846 -36.798875,0.0314 l -0.0044,3.00707 c -2.43371,0.30807 -4.86742,0.26448 -7.30113,-0.0561 -0.244723,-6.8336 0.264623,-14.2956 -0.935819,-20.33278 0.176705,-2.78697 1.040992,-4.94668 3.76524,-5.40958 0.81854,-0.0987 0.88334,-0.57437 0.823437,-1.11234 -0.49329,-0.95605 -1.056159,-1.28587 -1.610509,-1.69238 l -3.181683,-0.0245 c -0.36646,-0.995 -0.574546,-1.98999 -0.560111,-2.98499 l 5.47377,0.0487 0.557601,2.56336 c 0.318349,0.57539 0.612259,0.63757 0.867161,-0.11942 z"
         sodipodi:nodetypes="ccccccccccccccccccccccccccc" /><path
         style="fill:#ffffff;stroke:none;stroke-width:0.1;stroke-linecap:round;stroke-dasharray:none"
         id="path3096"
         sodipodi:type="arc"
         sodipodi:cx="70.806259"
         sodipodi:cy="206.24011"
         sodipodi:rx="1.1791061"
         sodipodi:ry="1.1791061"
         sodipodi:start="0"
         sodipodi:end="6.2515184"
         sodipodi:open="true"
         sodipodi:arc-type="arc"
         d="m 71.985365,206.24011 a 1.1791061,1.1791061 0 0 1 -1.169771,1.17907 1.1791061,1.1791061 0 0 1 -1.188293,-1.1604 1.1791061,1.1791061 0 0 1 1.150957,-1.19744 1.1791061,1.1791061 0 0 1 1.206516,1.14144" /><path
         style="fill:#ffffff;stroke:none;stroke-width:0.1;stroke-linecap:round;stroke-dasharray:none"
         id="path3098"
         sodipodi:type="arc"
         sodipodi:cx="73.16787"
         sodipodi:cy="210.76109"
         sodipodi:rx="2.8943172"
         sodipodi:ry="2.8943172"
         sodipodi:start="0"
         sodipodi:end="6.2515184"
         sodipodi:open="true"
         sodipodi:arc-type="arc"
         d="m 76.062187,210.76109 a 2.8943172,2.8943172 0 0 1 -2.871404,2.89423 2.8943172,2.8943172 0 0 1 -2.916868,-2.8484 2.8943172,2.8943172 0 0 1 2.82522,-2.93933 2.8943172,2.8943172 0 0 1 2.961601,2.80186" /><path
         style="fill:#ffffff;stroke:none;stroke-width:0.1;stroke-linecap:round;stroke-dasharray:none"
         id="path3096-6"
         sodipodi:type="arc"
         sodipodi:cx="-114.7143"
         sodipodi:cy="206.22562"
         sodipodi:rx="1.1791061"
         sodipodi:ry="1.1791061"
         sodipodi:start="0"
         sodipodi:end="6.2515184"
         sodipodi:open="true"
         sodipodi:arc-type="arc"
         d="m -113.5352,206.22562 a 1.1791061,1.1791061 0 0 1 -1.16977,1.17907 1.1791061,1.1791061 0 0 1 -1.18829,-1.16041 1.1791061,1.1791061 0 0 1 1.15096,-1.19744 1.1791061,1.1791061 0 0 1 1.20651,1.14144"
         transform="scale(-1,1)" /><path
         style="fill:#ffffff;stroke:none;stroke-width:0.1;stroke-linecap:round;stroke-dasharray:none"
         id="path3098-0"
         sodipodi:type="arc"
         sodipodi:cx="-112.35269"
         sodipodi:cy="210.7466"
         sodipodi:rx="2.8943172"
         sodipodi:ry="2.8943172"
         sodipodi:start="0"
         sodipodi:end="6.2515184"
         sodipodi:open="true"
         sodipodi:arc-type="arc"
         d="m -109.45837,210.7466 a 2.8943172,2.8943172 0 0 1 -2.87141,2.89422 2.8943172,2.8943172 0 0 1 -2.91687,-2.8484 2.8943172,2.8943172 0 0 1 2.82522,-2.93932 2.8943172,2.8943172 0 0 1 2.9616,2.80186"
         transform="scale(-1,1)" /><path
         id="rect3127"
         style="fill:#ffffff;stroke:none;stroke-width:0.1;stroke-linecap:round"
         d="m 85.535728,212.64339 h 13.448169 c 1.447423,0.14367 3.594373,1.55766 2.048653,2.02132 H 83.783913 c -1.522727,-0.88592 1.109113,-2.02262 1.751815,-2.02132 z"
         sodipodi:nodetypes="ccccc" /><path
         id="rect3154"
         style="fill:#ffffff;stroke:none;stroke-width:0.1;stroke-linecap:round"
         d="m 70.453919,217.43296 c 2.316564,0.57102 4.62797,0.92723 6.937671,1.21244 0.407119,1.07015 0.562464,2.17373 0.683297,3.2819 -2.524897,-0.55256 -5.039527,-0.95854 -7.646657,-2.68479 -0.657585,-0.55304 -1.288533,-1.95964 0.02569,-1.80955 z"
         sodipodi:nodetypes="ccccc" /><path
         id="rect3154-2"
         style="fill:#ffffff;stroke:none;stroke-width:0.1;stroke-linecap:round"
         d="m 115.91503,217.43379 c -2.31656,0.57102 -4.62797,0.92723 -6.93767,1.21244 -0.40712,1.07015 -0.56246,2.17373 -0.6833,3.2819 2.5249,-0.55256 5.03953,-0.95854 7.64666,-2.68479 0.65759,-0.55304 1.28853,-1.95964 -0.0257,-1.80955 z"
         sodipodi:nodetypes="ccccc" /><path
         id="rect3179"
         style="fill:#ffffff;stroke:none;stroke-width:0.1;stroke-linecap:round"
         d="m 83.184822,219.32663 c 6.079485,0.25729 12.111864,0.18483 18.128188,0 5.8435,-0.55178 2.17216,2.47502 0,3.40648 -6.010534,0.35415 -12.054133,0.34458 -18.128188,0 -2.866168,-0.99722 -5.098022,-4.17677 0,-3.40648 z"
         sodipodi:nodetypes="ccccc" /><path
         id="rect3182"
         style="fill:#ffffff;stroke:none;stroke-width:0.1;stroke-linecap:round"
         d="m 77.658226,191.71576 c 9.760505,0.26688 19.433799,0.27213 29.014634,0 1.32638,1.95809 2.56794,3.97979 3.53732,6.20563 1.61484,3.61985 -0.72715,4.31165 -3.53732,4.65699 -9.472867,0.75498 -19.093792,0.94733 -29.014634,0 -2.604483,-0.40747 -4.692561,-1.1838 -3.571007,-4.25272 0.987806,-2.3552 2.225165,-4.52323 3.571007,-6.6099 z"
         sodipodi:nodetypes="ccccccc" /></g><text
       xml:space="preserve"
       style="font-size:4.23333px;line-height:1.25;font-family:sans-serif;stroke-width:0.264583"
       x="38.079994"
       y="158.28032"
       id="text6162"><tspan
         sodipodi:role="line"
         id="tspan6160"
         style="stroke-width:0.264583"
         x="38.079994"
         y="158.28032" /></text></g></svg>
